<svg width="42" height="41" viewBox="0 0 42 41" fill="none" xmlns="http://www.w3.org/2000/svg">
<path d="M14.6437 19.1738C15.1249 19.1738 15.5374 18.7664 15.5374 18.291C15.5374 17.8156 15.1249 17.4081 14.6437 17.4081C13.2002 17.4081 12.0313 16.2536 12.0313 14.8275C12.0313 13.4013 13.2002 12.2468 14.6437 12.2468C15.1249 12.2468 15.5374 11.8394 15.5374 11.364C15.5374 10.8886 15.1249 10.4811 14.6437 10.4811C12.3065 10.4811 10.3125 12.3827 10.3125 14.7596C10.3125 17.1365 12.2379 19.1738 14.6437 19.1738Z" fill="#1E9E7A"/>
<path d="M14.3698 14.353C14.0266 14.0134 13.4761 14.0134 13.1329 14.353C12.789 14.6925 12.789 15.2358 13.1329 15.5754L14.0266 16.4582C14.3698 16.7978 14.9203 16.7978 15.2635 16.4582L17.8767 13.8776C18.2199 13.538 18.2199 12.9947 17.8767 12.6552C17.5328 12.3156 16.983 12.3156 16.6391 12.6552L14.6451 14.6246L14.3698 14.353Z" fill="#1E9E7A"/>
<path d="M19.8 14.9648H23.2375C23.7187 14.9648 24.1312 14.5574 24.1312 14.082C24.1312 13.6066 23.7187 13.1991 23.2375 13.1991H19.8C19.3188 13.1991 18.9062 13.6066 18.9062 14.082C18.9062 14.5574 19.3188 14.9648 19.8 14.9648Z" fill="#1E9E7A"/>
<path d="M25.7811 14.9648H26.6748C27.156 14.9648 27.5685 14.5574 27.5685 14.082C27.5685 13.6066 27.156 13.1991 26.6748 13.1991H25.7811C25.2999 13.1991 24.8867 13.6066 24.8867 14.082C24.956 14.5574 25.2999 14.9648 25.7811 14.9648Z" fill="#1E9E7A"/>
<path d="M19.8 17.4775H30.1126C30.5937 17.4775 31.0062 17.0701 31.0062 16.5947C31.0062 16.1193 30.5937 15.7118 30.1126 15.7118H19.8C19.3188 15.7118 18.9062 16.1193 18.9062 16.5947C18.9062 17.0701 19.3188 17.4775 19.8 17.4775Z" fill="#1E9E7A"/>
<path d="M14.6437 28.5469C15.1249 28.5469 15.5374 28.1394 15.5374 27.664C15.5374 27.1886 15.1249 26.7812 14.6437 26.7812C13.2002 26.7812 12.0313 25.6267 12.0313 24.2005C12.0313 22.7744 13.2002 21.6199 14.6437 21.6199C15.1249 21.6199 15.5374 21.2124 15.5374 20.737C15.5374 20.2616 15.1249 19.8542 14.6437 19.8542C12.3065 19.8542 10.3125 21.7557 10.3125 24.1326C10.3125 26.5095 12.2379 28.5469 14.6437 28.5469Z" fill="#1E9E7A"/>
<path d="M16.5727 21.9599L14.5787 23.9293L14.3034 23.6576C13.9602 23.3181 13.4097 23.3181 13.0665 23.6576C12.7226 23.9972 12.7226 24.5405 13.0665 24.8801L13.9602 25.7629C14.3034 26.1025 14.8532 26.1025 15.1971 25.7629L17.8103 23.1823C18.1535 22.8427 18.1535 22.2994 17.8103 21.9599C17.4664 21.6203 16.9166 21.6203 16.5727 21.9599Z" fill="#1E9E7A"/>
<path d="M19.8 24.2695H23.2375C23.7187 24.2695 24.1312 23.8621 24.1312 23.3867C24.1312 22.9113 23.7187 22.5038 23.2375 22.5038H19.8C19.3188 22.5038 18.9062 22.9113 18.9062 23.3867C18.9062 23.8621 19.3188 24.2695 19.8 24.2695Z" fill="#1E9E7A"/>
<path d="M25.7811 22.5702C25.2999 22.5702 24.8867 22.9777 24.8867 23.4531C24.8867 23.9285 25.2999 24.3359 25.7811 24.3359H26.6748C27.156 24.3359 27.5685 23.9285 27.5685 23.4531C27.5685 22.9777 27.156 22.5702 26.6748 22.5702H25.7811Z" fill="#1E9E7A"/>
<path d="M19.8 26.8496H26.675C27.1562 26.8496 27.5687 26.4421 27.5687 25.9668C27.5687 25.4914 27.1562 25.0839 26.675 25.0839H19.8C19.3188 25.0839 18.9062 25.4914 18.9062 25.9668C18.9062 26.4421 19.3188 26.8496 19.8 26.8496Z" fill="#1E9E7A"/>
<path d="M2.61314 37.0351C2.13129 37.0351 1.71877 36.6276 1.71877 36.1522C1.71877 35.6768 2.13129 35.2694 2.61314 35.2694C3.09432 35.2694 3.50686 35.6768 3.50686 36.1522C3.43754 36.6276 3.02567 37.0351 2.61314 37.0351ZM2.61314 33.6395C1.16895 33.6395 0 34.794 0 36.2201C0 37.6463 1.16895 38.8008 2.61314 38.8008C4.05666 38.8008 5.22493 37.6463 5.22493 36.2201C5.22493 34.794 3.98802 33.6395 2.61314 33.6395Z" fill="#1E9E7A"/>
<path d="M3.85004 12.3842C3.64411 12.3842 3.43752 12.1805 3.43752 11.9768C3.43752 11.773 3.64411 11.5693 3.85004 11.5693C4.05664 11.5693 4.26257 11.773 4.26257 11.9768C4.33121 12.1805 4.12528 12.3842 3.85004 12.3842ZM3.85004 9.8715C2.68177 9.8715 1.71875 10.8223 1.71875 11.9768C1.71875 13.1313 2.68177 14.082 3.85004 14.082C5.01899 14.082 5.98134 13.1313 5.98134 11.9768C5.98134 10.8223 5.01899 9.8715 3.85004 9.8715Z" fill="#1E9E7A"/>
<path d="M38.2242 3.89539C38.912 3.89539 39.5304 4.43868 39.5304 5.18571C39.5304 5.93274 38.9813 6.47604 38.2242 6.47604C37.4685 6.47604 36.9187 5.93274 36.9187 5.18571C36.9187 4.43868 37.5371 3.89539 38.2242 3.89539ZM38.2242 8.17383C39.8743 8.17383 41.2499 6.81559 41.2499 5.18571C41.2499 3.55583 39.8743 2.1976 38.2242 2.1976C36.5748 2.1976 35.1992 3.55583 35.1992 5.18571C35.1992 6.81559 36.5748 8.17383 38.2242 8.17383Z" fill="#1E9E7A"/>
<path d="M33.5502 38.7343C30.182 38.7343 27.5002 36.0178 27.5002 32.7581C27.5002 29.4983 30.182 26.7818 33.5502 26.7818C36.9191 26.7818 39.6002 29.4304 39.6002 32.7581C39.6002 36.0857 36.8497 38.7343 33.5502 38.7343ZM10.1059 38.7343C9.28154 38.7343 8.59377 38.0552 8.59377 37.2402V8.78523C8.59377 7.97029 9.28154 7.29117 10.1059 7.29117H12.1693C12.5125 8.71732 13.8187 9.73599 15.3316 9.80391C15.4688 9.80391 25.8501 9.80391 26.056 9.80391C26.1939 9.80391 26.2626 9.80391 26.3999 9.73599C27.7754 9.53226 28.8064 8.51358 29.1503 7.22326H31.2123C32.0373 7.22326 32.7251 7.90238 32.7251 8.71732V25.084C28.8064 25.4915 25.85 28.8192 25.85 32.6902C25.85 34.9312 26.8811 37.1723 28.7378 38.5985H10.1059V38.7343ZM15.4688 4.77844H18.0813C18.5625 4.77844 18.975 4.37097 18.975 3.89558C18.975 2.94482 19.7314 2.19779 20.6938 2.19779C21.6568 2.19779 22.4125 2.94482 22.4125 3.89558C22.4125 4.37097 22.8251 4.77844 23.3062 4.77844H25.9187C26.881 4.77844 27.6375 5.52547 27.6375 6.47623C27.6375 7.42699 26.881 8.17402 25.9187 8.17402H15.6061C14.6438 8.17402 13.8874 7.42699 13.8874 6.47623C13.8874 5.52547 14.5065 4.77844 15.4688 4.77844ZM34.3746 25.152V8.78523C34.3746 7.01952 32.931 5.59338 31.1443 5.59338H29.081C28.6691 4.09932 27.3629 3.01273 25.7814 3.01273H23.9247C23.5815 1.58659 22.2066 0.5 20.6251 0.5C19.0436 0.5 17.6688 1.58659 17.3256 3.08065H15.4688C13.8873 3.08065 12.5125 4.16723 12.1693 5.66129H10.1059C8.3192 5.66129 6.875 7.08744 6.875 8.85314V37.3081C6.875 39.0739 8.3192 40.5 10.1059 40.5H31.1443C31.4875 40.5 31.7628 40.4321 32.0373 40.3642C36.8497 41.247 41.181 37.5798 41.181 32.826C41.2503 28.8192 38.2246 25.5594 34.3746 25.152Z" fill="#1E9E7A"/>
<path d="M21.5179 30.246H12.0304C11.5493 30.246 11.1367 30.6535 11.1367 31.1289C11.1367 31.6042 11.5493 32.0117 12.0304 32.0117H21.5179C21.9991 32.0117 22.4117 31.6042 22.4117 31.1289C22.343 30.5856 21.9305 30.246 21.5179 30.246Z" fill="#1E9E7A"/>
<path d="M21.5179 32.7577H12.0304C11.5493 32.7577 11.1367 33.1652 11.1367 33.6406C11.1367 34.116 11.5493 34.5234 12.0304 34.5234H21.5179C21.9991 34.5234 22.4117 34.116 22.4117 33.6406C22.343 33.1652 21.9305 32.7577 21.5179 32.7577Z" fill="#1E9E7A"/>
<path d="M36.7134 31.4005L33.6197 32.4191L30.5254 30.3818C30.1135 30.1101 29.5631 30.246 29.3578 30.5855C29.0819 30.993 29.2198 31.5363 29.5631 31.74L33.0013 33.9811C33.2072 34.1169 33.4824 34.1848 33.757 34.049L37.1945 32.8945C37.6757 32.7587 37.8823 32.2833 37.7443 31.8079C37.6071 31.4684 37.1259 31.2646 36.7134 31.4005Z" fill="#1E9E7A"/>
</svg>
