<svg width="38" height="41" viewBox="0 0 38 41" fill="none" xmlns="http://www.w3.org/2000/svg">
<path d="M20.4046 12.1914C20.7483 11.8516 20.7483 11.3078 20.4046 10.9679C20.0612 10.628 19.5115 10.628 19.1678 10.9679C18.8243 11.3078 18.8243 11.8516 19.1678 12.1914C19.374 12.3953 20.0612 12.5313 20.4046 12.1914Z" fill="#6E24FF"/>
<path d="M35.3195 30.3402H2.67998C2.19864 30.3402 1.78631 29.9323 1.78631 29.4565C1.78631 28.9807 2.19864 28.5729 2.67998 28.5729C6.39057 28.5729 31.4714 28.5729 35.3195 28.5729C35.8005 28.5729 36.2128 28.9807 36.2128 29.4565C36.2128 29.9323 35.7319 30.3402 35.3195 30.3402ZM4.39783 9.06461H33.6016V10.7639H22.4009C21.92 10.7639 21.5076 11.1718 21.5076 11.6476C21.5076 12.1234 21.92 12.5312 22.4009 12.5312H33.6016V27.0095H4.39783V9.06461ZM1.78631 6.54961C1.78631 6.0738 2.19864 5.66595 2.67998 5.66595H17.3165C17.7973 5.66595 18.2096 5.25812 18.2096 4.78231V3.08298C18.2096 2.60717 18.6219 2.19933 19.1027 2.19933C19.5838 2.19933 19.9962 2.60717 19.9962 3.08298V4.78231C19.9962 5.25812 20.4082 5.66595 20.8896 5.66595H35.526C36.007 5.66595 36.4193 6.0738 36.4193 6.54961C36.4193 7.02542 36.007 7.43326 35.526 7.43326C31.8151 7.43326 6.73388 7.43326 2.88587 7.43326C2.19864 7.36528 1.78631 6.95745 1.78631 6.54961ZM35.3195 26.9415V9.06461C36.763 9.06461 37.9314 7.90907 37.9314 6.48164C37.9314 5.0542 36.6944 3.96663 35.3195 3.96663H21.5763V3.08298C21.5763 1.65554 20.4082 0.5 18.9656 0.5C17.5224 0.5 16.3543 1.65554 16.3543 3.08298V3.96663H2.61096C1.16803 3.96663 0 5.12217 0 6.54961C0 7.97704 1.16803 9.13259 2.61096 9.13259V27.0095C1.16803 27.0095 0 28.165 0 29.5925C0 31.0199 1.16803 32.1755 2.61096 32.1755H17.11L11.4067 39.1087C11.1318 39.4486 11.2005 39.9924 11.5441 40.3322C11.8878 40.6041 12.4372 40.5361 12.7809 40.1963L18.1408 33.6029V38.8368C18.1408 39.3126 18.5532 39.7205 19.0343 39.7205C19.5151 39.7205 19.9274 39.3126 19.9274 38.8368V33.6029L25.2872 40.1963C25.5623 40.5361 26.1118 40.6041 26.5242 40.3322C26.8679 40.0603 26.9365 39.5166 26.6614 39.1087L20.8896 31.9715H35.3882C36.8316 31.9715 38 30.816 38 29.3886C38 27.9611 36.6944 26.9415 35.3195 26.9415Z" fill="#6E24FF"/>
<path d="M20.6819 23.5421C20.2009 23.5421 19.7885 23.1342 19.7885 22.6584C19.7885 22.1826 20.2009 21.7748 20.6819 21.7748C21.1624 21.7748 21.5748 22.1826 21.5748 22.6584C21.5748 23.1342 21.1624 23.5421 20.6819 23.5421ZM15.5281 15.0454C16.0092 15.0454 16.4212 15.4533 16.4212 15.9291C16.4212 16.4049 16.0092 16.8127 15.5281 16.8127C15.0473 16.8127 14.6349 16.4049 14.6349 15.9291C14.6349 15.4533 15.0473 15.0454 15.5281 15.0454ZM10.3746 23.5421C9.89352 23.5421 9.48113 23.1342 9.48113 22.6584C9.48113 22.1826 9.89352 21.7748 10.3746 21.7748C10.8554 21.7748 11.2677 22.1826 11.2677 22.6584C11.2677 23.1342 10.8554 23.5421 10.3746 23.5421ZM29.2711 14.1618H26.7285C26.2476 14.1618 25.8352 14.5696 25.8352 15.0454C25.8352 15.5212 26.2476 15.9291 26.7285 15.9291H27.2101L22.3308 20.7552C21.7813 20.2794 21.0252 20.0754 20.2696 20.2114L17.5896 17.5604C17.9332 17.1526 18.2081 16.5408 18.2081 15.9291C18.2081 14.5016 17.0401 13.3461 15.5969 13.3461C14.1539 13.3461 12.9858 14.5016 12.9858 15.9291C12.9858 16.6088 13.2605 17.2885 13.7418 17.7644L11.6798 20.5513C11.3365 20.3473 10.8554 20.2114 10.443 20.2114C9.00033 20.2114 7.83203 21.3669 7.83203 22.7944C7.83203 24.2218 9.00033 25.3773 10.443 25.3773C12.2299 25.3773 13.4666 23.5421 12.8481 21.9107C15.3906 18.5121 15.322 18.716 15.3906 18.58C15.5969 18.58 15.8717 18.58 16.0777 18.58L18.7576 21.231C18.414 21.6388 18.1394 22.2506 18.1394 22.8623C18.1394 24.2898 19.3077 25.4453 20.7504 25.4453C22.3308 25.4453 23.5678 24.0179 23.2934 22.4545L28.5157 17.2885V17.5604C28.5157 18.0362 28.928 18.4441 29.409 18.4441C29.8899 18.4441 30.3022 18.0362 30.3022 17.5604V15.0454C30.1643 14.5696 29.752 14.1618 29.2711 14.1618Z" fill="#6E24FF"/>
<path d="M3.50781 36.2538H6.9435V37.9531H3.50781V36.2538Z" fill="#6E24FF"/>
<path d="M6.9375 34.5546H10.3735V36.2539H6.9375V34.5546Z" fill="#6E24FF"/>
<path d="M28.4453 36.2538H31.8805V37.9531H28.4453V36.2538Z" fill="#6E24FF"/>
<path d="M31.8828 34.5546H35.3186V36.2539H31.8828V34.5546Z" fill="#6E24FF"/>
</svg>
