<svg width="32" height="32" viewBox="0 0 32 32" fill="none" xmlns="http://www.w3.org/2000/svg">
<path d="M30.8854 10.8758L27.9994 8.60249V1.99996C27.9994 0.897315 27.1021 0 25.9995 0H5.99988C4.89723 0 3.99992 0.897315 3.99992 1.99996V8.60316L1.14331 10.8551C0.427325 11.3591 0 12.1784 0 13.0471V28.6667C0 30.5047 1.4953 32 3.33326 32H28.6661C30.504 32 31.9993 30.5047 31.9993 28.6667V13.0471C31.9993 12.1784 31.572 11.3591 30.8854 10.8771V10.8758ZM30.4047 29.6347L20.7676 21.7195L30.666 13.4284V28.6661C30.666 29.0194 30.566 29.3467 30.4047 29.6347ZM30.0894 11.9451C30.138 11.9791 30.1767 12.0231 30.22 12.0624L28.0001 13.9224V10.3005L30.09 11.9458L30.0894 11.9451ZM5.99988 1.33331H25.9995C26.3675 1.33331 26.6661 1.63263 26.6661 1.99996V15.039L19.7189 20.8582L18.115 19.5409C16.8883 18.5343 15.1097 18.5343 13.883 19.5409L12.2791 20.8582L5.33189 15.039V1.99996C5.33189 1.63263 5.63055 1.33331 5.99854 1.33331H5.99988ZM1.59463 29.6347C1.4333 29.3467 1.33331 29.0194 1.33331 28.6661V13.4284L11.2318 21.7195L1.59463 29.6347ZM3.99992 10.3005V13.9217L1.7813 12.0637C1.83263 12.0158 1.87996 11.9658 1.93929 11.9238L3.99992 10.3005ZM3.33326 30.666C3.07794 30.666 2.83527 30.6134 2.61061 30.526L14.7304 20.5716C15.4657 19.9669 16.533 19.9669 17.2696 20.5716L29.3894 30.526C29.1647 30.6134 28.9221 30.666 28.6667 30.666H3.33326Z" fill="#0D0E10"/>
<path d="M8.66665 5.33324H23.333C23.7017 5.33324 23.9997 5.03458 23.9997 4.66659C23.9997 4.2986 23.7017 3.99994 23.333 3.99994H8.66665C8.29799 3.99994 8 4.2986 8 4.66659C8 5.03458 8.29799 5.33324 8.66665 5.33324Z" fill="#0D0E10"/>
<path d="M8.66665 10.6664H23.333C23.7017 10.6664 23.9997 10.3678 23.9997 9.99978C23.9997 9.63179 23.7017 9.33313 23.333 9.33313H8.66665C8.29799 9.33313 8 9.63179 8 9.99978C8 10.3678 8.29799 10.6664 8.66665 10.6664Z" fill="#0D0E10"/>
<path d="M8.66665 15.9997H23.333C23.7017 15.9997 23.9997 15.701 23.9997 15.333C23.9997 14.965 23.7017 14.6664 23.333 14.6664H8.66665C8.29799 14.6664 8 14.965 8 15.333C8 15.701 8.29799 15.9997 8.66665 15.9997Z" fill="#0D0E10"/>
</svg>
