<svg width="41" height="41" viewBox="0 0 41 41" fill="none" xmlns="http://www.w3.org/2000/svg">
<path d="M15.8301 13.6051C14.8534 13.6051 14.0869 14.3598 14.0869 15.3204C14.0869 16.2809 14.8534 17.0356 15.8301 17.0356C16.8061 17.0356 17.5727 16.2809 17.5727 15.3204C17.5727 14.4284 16.8061 13.6051 15.8301 13.6051Z" fill="#FC4B3E"/>
<path d="M5.8554 15.3192C7.18022 13.8784 8.85382 12.712 10.7363 11.9573C9.34184 13.947 9.34184 16.6228 10.7363 18.6125C8.85382 17.995 7.18022 16.8286 5.8554 15.3192ZM25.7973 15.3192C24.4725 16.76 22.7989 17.9264 20.9164 18.6811C22.3109 16.6914 22.3109 14.0156 20.9164 12.0259C22.7989 12.712 24.4725 13.8784 25.7973 15.3192ZM11.5035 15.3192C11.5035 12.9864 13.4562 10.9967 15.8963 10.9967C18.3371 10.9967 20.2892 12.9178 20.2892 15.3192C20.2892 17.652 18.3371 19.6417 15.8963 19.6417C13.4562 19.6417 11.5035 17.7206 11.5035 15.3192ZM27.6108 15.8681C27.8893 15.525 27.8893 15.1134 27.6108 14.8389C24.8916 11.4084 20.4987 9.35007 15.8267 9.35007C11.1547 9.35007 6.76181 11.4084 4.04186 14.8389C3.76339 15.182 3.76339 15.5936 4.04186 15.8681C6.76181 19.2986 11.1547 21.3569 15.8267 21.3569C20.4987 21.3569 24.8916 19.2986 27.6108 15.8681Z" fill="#FC4B3E"/>
<path d="M34.096 30.3456L38.6281 34.8053L35.56 37.8242L31.0279 33.3645L34.096 30.3456ZM27.4023 31.5806C28.7974 30.2084 29.9127 29.1106 32.2831 26.7779L33.7472 28.2187C31.3071 30.6201 30.2614 31.6492 28.8663 33.0214L27.4023 31.5806ZM24.8222 27.2581C25.9382 26.4348 26.9838 25.4057 27.8903 24.2393L30.1215 26.4348L27.0535 29.4537L24.8222 27.2581ZM15.8276 28.4931C8.43636 28.4931 2.50915 22.5926 2.50915 15.3885C2.50915 8.11578 8.50597 2.28388 15.8276 2.28388C19.383 2.28388 22.7309 3.65609 25.2406 6.12608C30.3304 11.1346 30.5399 19.5051 25.2406 24.7196C22.8701 27.0523 19.5236 28.4931 15.8276 28.4931ZM40.0928 38.7161H37.0944L40.4416 35.4228C40.7904 35.0798 40.7904 34.5309 40.4416 34.1878L35.3512 29.1792L35.6303 28.9048C35.9791 28.5618 35.9791 28.0129 35.6303 27.6698L32.9104 24.994C32.5623 24.6509 32.0047 24.6509 31.6559 24.994L31.3767 25.2684L28.8663 22.7985C30.4703 20.1226 31.1679 16.9666 30.8191 13.8791C30.0519 6.40052 23.7069 0.500004 15.8276 0.500004C7.46032 0.500004 0.766602 7.15523 0.766602 15.3199C0.766602 23.5532 7.52994 30.1398 15.8276 30.1398C16.1061 30.1398 19.5236 30.3456 23.3582 28.1501L25.8686 30.6201L25.5198 30.9631C25.171 31.3062 25.171 31.8551 25.5198 32.1981L28.239 34.8739C28.5878 35.217 29.1448 35.217 29.4936 34.8739L29.7734 34.5995L33.9567 38.7161H5.22842C4.7404 38.7161 4.32268 39.1278 4.32268 39.6081C4.32268 40.0883 4.7404 40.5 5.22842 40.5H40.0928C40.5808 40.5 40.9992 40.0883 40.9992 39.6081C40.9992 39.0592 40.5808 38.7161 40.0928 38.7161Z" fill="#FC4B3E"/>
<path d="M16.5954 36.1083C16.5954 35.628 16.177 35.2164 15.689 35.2164H0.907086C0.419067 35.2164 0 35.628 0 36.1083C0 36.5886 0.419067 37.0002 0.907086 37.0002H15.7593C16.177 37.0002 16.5954 36.5886 16.5954 36.1083Z" fill="#FC4B3E"/>
<path d="M33.1201 6.12604H35.7698V7.84131H33.1201V6.12604Z" fill="#FC4B3E"/>
<path d="M35.7715 4.40973H38.4218V6.125H35.7715V4.40973Z" fill="#FC4B3E"/>
<path d="M33.1201 9.55622H35.7698V11.2715H33.1201V9.55622Z" fill="#FC4B3E"/>
<path d="M35.7715 7.84113H38.4218V9.5564H35.7715V7.84113Z" fill="#FC4B3E"/>
<path d="M33.1201 12.9876H35.7698V14.7029H33.1201V12.9876Z" fill="#FC4B3E"/>
<path d="M35.7715 11.2713H38.4218V12.9866H35.7715V11.2713Z" fill="#FC4B3E"/>
<path d="M33.1201 16.4178H35.7698V18.1331H33.1201V16.4178Z" fill="#FC4B3E"/>
<path d="M35.7715 14.7027H38.4218V16.418H35.7715V14.7027Z" fill="#FC4B3E"/>
<path d="M33.1201 19.8467H35.7698V21.562H33.1201V19.8467Z" fill="#FC4B3E"/>
<path d="M35.7715 18.1329H38.4218V19.8481H35.7715V18.1329Z" fill="#FC4B3E"/>
</svg>
