<svg width="34" height="40" viewBox="0 0 34 40" fill="none" xmlns="http://www.w3.org/2000/svg">
<path fill-rule="evenodd" clip-rule="evenodd" d="M16.741 21.203C16.9892 21.2027 17.2307 21.2834 17.4289 21.4328C17.627 21.5822 17.771 21.7922 17.839 22.0309C17.9071 22.2696 17.8954 22.5239 17.8057 22.7553C17.7161 22.9867 17.5534 23.1826 17.3424 23.3132C17.2511 23.3697 17.1821 23.4559 17.1469 23.5574C17.1117 23.6588 17.1124 23.7692 17.149 23.8701L17.7668 25.5919H15.7188L16.3361 23.8701C16.3719 23.7691 16.3722 23.659 16.3371 23.5578C16.302 23.4566 16.2335 23.3703 16.1428 23.3132C15.932 23.1828 15.7694 22.9872 15.6797 22.7561C15.59 22.5249 15.5781 22.2709 15.6457 22.0324C15.7133 21.7939 15.8568 21.5839 16.0545 21.4342C16.2521 21.2846 16.4931 21.2034 16.741 21.203ZM15.0521 26.5301H18.4299C18.5053 26.5304 18.5795 26.5125 18.6465 26.4781C18.7135 26.4436 18.7712 26.3936 18.8148 26.3321C18.8583 26.2707 18.8865 26.1997 18.8969 26.1251C18.9073 26.0505 18.8995 25.9745 18.8744 25.9035L18.1455 23.8754C18.4545 23.5925 18.6708 23.2227 18.766 22.8147C18.8612 22.4067 18.8309 21.9794 18.6791 21.5889C18.5273 21.1984 18.2611 20.8628 17.9153 20.6262C17.5695 20.3896 17.1602 20.2631 16.7413 20.2631C16.3223 20.2631 15.9131 20.3896 15.5673 20.6262C15.2215 20.8628 14.9552 21.1984 14.8034 21.5889C14.6516 21.9794 14.6213 22.4067 14.7165 22.8147C14.8118 23.2227 15.028 23.5925 15.337 23.8754L14.6104 25.9035C14.5848 25.9741 14.5766 26.05 14.5866 26.1245C14.5966 26.199 14.6244 26.27 14.6677 26.3315C14.7112 26.3926 14.7686 26.4426 14.8352 26.4771C14.9018 26.5117 14.9757 26.5299 15.0508 26.5301H15.0521ZM10.9223 19.2145V27.5804C10.9228 27.8299 11.0222 28.069 11.1988 28.2453C11.3753 28.4216 11.6146 28.5207 11.8641 28.5208H21.6193C21.743 28.521 21.8656 28.4969 21.98 28.4498C22.0944 28.4026 22.1984 28.3334 22.2861 28.2461C22.3737 28.1588 22.4433 28.055 22.4909 27.9408C22.5385 27.8266 22.5631 27.7041 22.5633 27.5804V19.2145C22.5628 18.9651 22.4634 18.726 22.2868 18.5499C22.1102 18.3737 21.8709 18.2748 21.6215 18.275H11.8628C11.6134 18.2748 11.3741 18.3737 11.1975 18.5499C11.0209 18.726 10.9215 18.9651 10.921 19.2145H10.9223ZM16.741 11.4785C17.8536 11.4796 18.9202 11.922 19.7071 12.7085C20.4939 13.495 20.9368 14.5615 20.9384 15.674V17.3367H12.5446V15.674C12.5462 14.5618 12.9888 13.4956 13.7752 12.7091C14.5617 11.9227 15.6279 11.4801 16.7401 11.4785H16.741ZM11.8628 29.4581H21.6193C22.1172 29.4578 22.5945 29.2598 22.9465 28.9077C23.2986 28.5556 23.4964 28.0782 23.4966 27.5804V19.2145C23.4963 18.7607 23.3317 18.3224 23.0333 17.9805C22.7348 17.6387 22.3227 17.4165 21.8731 17.3549V15.674C21.8731 14.3126 21.3322 13.0069 20.3695 12.0442C19.4069 11.0815 18.1012 10.5407 16.7397 10.5407C15.3783 10.5407 14.0726 11.0815 13.1099 12.0442C12.1472 13.0069 11.6063 14.3126 11.6063 15.674V17.3549C11.1573 17.4173 10.746 17.6399 10.4481 17.9816C10.1503 18.3233 9.98594 18.7612 9.98543 19.2145V27.5804C9.98614 28.0785 10.1844 28.556 10.5368 28.908C10.8892 29.2601 11.3669 29.4579 11.865 29.4581H11.8628ZM3.43072 10.0322C3.40317 15.0243 3.41117 21.1243 5.03695 25.8266C6.80941 30.9559 10.5312 34.3226 16.741 36.4133C22.9522 34.3244 26.6736 30.9559 28.4456 25.8266C30.0722 21.1243 30.0794 15.0265 30.0527 10.0322C25.2116 9.26771 20.6369 7.31035 16.741 4.33663C12.8459 7.31075 8.27154 9.26817 3.43072 10.0322ZM16.5935 37.352C16.6408 37.3677 16.6903 37.3757 16.7401 37.3755C16.7906 37.3757 16.8407 37.3678 16.8886 37.352C23.4864 35.1662 27.4402 31.5999 29.3305 26.1332C31.0522 21.1554 31.0167 14.7616 30.986 9.62645C30.9857 9.5139 30.9448 9.40524 30.8709 9.32041C30.7969 9.23559 30.6948 9.18029 30.5834 9.16467C25.6369 8.45322 20.9637 6.45652 17.0304 3.37396C16.9478 3.30966 16.8461 3.27475 16.7415 3.27475C16.6368 3.27475 16.5352 3.30966 16.4526 3.37396C12.5183 6.4566 7.8442 8.45315 2.89694 9.16422C2.7856 9.18003 2.68368 9.2354 2.60981 9.32019C2.53595 9.40499 2.49509 9.51355 2.49471 9.626C2.46583 14.7612 2.42983 21.1554 4.15073 26.1332C6.04096 31.5999 9.99388 35.1666 16.5953 37.3524L16.5935 37.352ZM0.940037 9.06378C0.912037 22.4919 0.886705 34.0942 16.7401 39.0404C32.5954 34.0942 32.57 22.4919 32.5416 9.06378C32.5416 8.64689 32.5416 8.22822 32.5416 7.8091C26.6861 7.34624 21.1402 4.99095 16.741 1.09883C12.3428 4.99145 6.79737 7.3471 0.94226 7.80999C0.94226 8.22896 0.94226 8.64718 0.94226 9.06467L0.940037 9.06378ZM6.99697 34.896C9.45699 37.084 12.6001 38.7467 16.6041 39.9787C16.6481 39.9928 16.694 40 16.7401 40C16.7869 40 16.8334 39.9928 16.8779 39.9787C20.882 38.7467 24.0251 37.084 26.4847 34.896C28.709 32.9186 30.4124 30.424 31.4443 27.6324C33.5083 22.2465 33.494 15.8425 33.4794 9.062C33.4776 8.502 33.4776 7.93814 33.4794 7.37043C33.4788 7.25132 33.4331 7.13686 33.3514 7.05015C33.2698 6.96345 33.1582 6.91097 33.0394 6.90332C27.0946 6.53215 21.4553 4.13986 17.057 0.12327C16.9709 0.043999 16.8581 0 16.741 0C16.624 0 16.5112 0.043999 16.425 0.12327C12.0271 4.1394 6.38861 6.53165 0.444478 6.90332C0.32558 6.91077 0.213976 6.9632 0.132335 7.04996C0.0506941 7.13672 0.00513784 7.2513 0.00491949 7.37043C0.00491949 7.93814 0.00403079 8.502 0.002253 9.062C-0.0115249 15.8425 -0.0257471 22.2465 2.03693 27.6324C3.06931 30.4238 4.77273 32.9184 6.99697 34.896Z" fill="#0D0E10"/>
</svg>
