<svg width="40" height="32" viewBox="0 0 40 32" fill="none" xmlns="http://www.w3.org/2000/svg">
<path d="M39.3333 3.35371H34.0001V0.670089C34.0001 0.299708 33.7016 0 33.3334 0H4.66723C4.29907 0 4.00058 0.299708 4.00058 0.670089V16.7788C2.24644 16.6024 0.661243 17.8581 0.183256 19.5039C-0.144866 20.6019 -0.193368 22.4329 1.43779 24.9183C2.83458 27.0424 6.07541 30.1566 7.883 31.824C8.13769 32.058 8.52847 32.0592 8.78338 31.8246C9.51343 31.155 10.7556 29.989 12.0004 28.706V29.4872C12.0004 29.8575 12.2989 30.1573 12.6671 30.1573H28.6668C29.035 30.1573 29.3335 29.8575 29.3335 29.4872V23.4531H33.3334C33.7016 23.4531 34.0001 23.1534 34.0001 22.783V20.1059H39.3333C39.7015 20.1059 40 19.8062 40 19.4358V4.0238C40 3.65342 39.7015 3.35371 39.3333 3.35371ZM8.33482 30.4184C6.52723 28.7314 3.76262 26.0235 2.5504 24.1795C0.825447 21.4554 0.865784 19.2996 2.92822 18.2429C4.93718 17.5809 6.77768 19.4789 7.74564 21.2622C7.97464 21.7282 8.69315 21.7286 8.92205 21.2622C10.3424 18.36 14.1709 16.4715 15.2567 20.1059H12.6671C12.2989 20.1059 12.0004 20.4056 12.0004 20.776V26.761C10.7241 28.1516 9.29151 29.5271 8.33482 30.4184ZM28.0002 28.8171H13.3338C13.3338 27.6251 13.3338 22.7294 13.3338 21.4461C14.9769 21.4461 26.0916 21.4461 28.0002 21.4461C28.0002 22.2688 28.0002 27.8606 28.0002 28.8171ZM32.6668 22.1129H29.3335V20.776C29.3354 20.4045 29.0362 20.1025 28.6668 20.1027H16.6172C15.7466 15.7338 10.9079 15.7808 8.33286 19.6603C7.57421 18.5745 6.55838 17.6075 5.33389 17.0951V1.34018H32.6668C32.6668 5.10963 32.6668 18.342 32.6668 22.1129ZM38.6667 18.7658H34.0001V4.69389H38.6667V18.7658Z" fill="#0D0E10"/>
<path d="M16.0008 24.7962H20.6674C21.5423 24.7819 21.5448 23.4708 20.6674 23.4561H16.0008C15.1259 23.4704 15.1235 24.7815 16.0008 24.7962Z" fill="#0D0E10"/>
<path d="M23.334 26.1367H16.0008C15.1267 26.1508 15.1227 27.462 16.0008 27.4769L23.334 27.4769C24.208 27.4629 24.212 26.1516 23.334 26.1367Z" fill="#0D0E10"/>
<path d="M29.9973 8.71484H23.3307C22.9626 8.71484 22.6641 9.01455 22.6641 9.38493V18.0961C22.6641 18.4665 22.9626 18.7662 23.3307 18.7662H29.9973C30.3654 18.7662 30.6639 18.4665 30.6639 18.0961V9.38493C30.6639 9.01455 30.3654 8.71484 29.9973 8.71484ZM29.3306 17.426H23.9974V10.055H29.3306V17.426Z" fill="#0D0E10"/>
<path d="M12.664 7.0353C12.5381 3.05025 6.78939 3.05119 6.66406 7.03537C6.78998 11.0204 12.5386 11.0194 12.664 7.0353ZM7.99738 7.0353C8.05491 4.8263 11.2734 4.82674 11.3307 7.03536C11.2731 9.24431 8.05458 9.24387 7.99738 7.0353Z" fill="#0D0E10"/>
<path d="M18.6688 9.38477H14.6688C13.7937 9.39913 13.7917 10.7102 14.6688 10.7249L18.6688 10.7249C19.5439 10.7106 19.5459 9.39951 18.6688 9.38477Z" fill="#0D0E10"/>
<path d="M18.6665 12.7354H8.66666C8.2985 12.7354 8 13.0351 8 13.4054C8 13.7758 8.2985 14.0755 8.66666 14.0755H18.6665C19.5397 14.0618 19.5452 12.7503 18.6665 12.7354Z" fill="#0D0E10"/>
</svg>
