<svg width="25" height="24" viewBox="0 0 25 24" fill="none" xmlns="http://www.w3.org/2000/svg">
<path d="M12.5 3L14.5357 8.16153C14.7236 8.63799 14.8175 8.87622 14.9614 9.0771C15.0889 9.25516 15.2448 9.41106 15.4229 9.53859C15.6238 9.68245 15.862 9.77641 16.3385 9.96432L21.5 12L16.3385 14.0357C15.862 14.2236 15.6238 14.3175 15.4229 14.4614C15.2448 14.5889 15.0889 14.7448 14.9614 14.9229C14.8175 15.1238 14.7236 15.362 14.5357 15.8385L12.5 21L10.4643 15.8385C10.2764 15.362 10.1825 15.1238 10.0386 14.9229C9.91106 14.7448 9.75516 14.5889 9.5771 14.4614C9.37622 14.3175 9.13799 14.2236 8.66153 14.0357L3.5 12L8.66153 9.96432C9.13799 9.77641 9.37622 9.68245 9.5771 9.53859C9.75516 9.41106 9.91106 9.25516 10.0386 9.0771C10.1825 8.87622 10.2764 8.63799 10.4643 8.16153L12.5 3Z" stroke="white" stroke-width="2" stroke-linecap="round" stroke-linejoin="round"/>
</svg>
